<mxfile host="Electron" modified="2024-01-22T21:34:07.523Z" agent="Mozilla/5.0 (X11; Linux x86_64) AppleWebKit/537.36 (KHTML, like Gecko) draw.io/22.1.16 Chrome/120.0.6099.109 Electron/28.1.0 Safari/537.36" etag="IpLgltSYutLwFxwqX5DZ" version="22.1.16" type="device">
  <diagram id="C5RBs43oDa-KdzZeNtuy" name="Page-1">
    <mxGraphModel dx="548" dy="-157" grid="1" gridSize="10" guides="1" tooltips="1" connect="1" arrows="1" fold="1" page="1" pageScale="1" pageWidth="827" pageHeight="1169" math="0" shadow="0">
      <root>
        <mxCell id="WIyWlLk6GJQsqaUBKTNV-0" />
        <mxCell id="WIyWlLk6GJQsqaUBKTNV-1" parent="WIyWlLk6GJQsqaUBKTNV-0" />
        <mxCell id="RPS7sMxcY_FMIf3tSwKq-114" style="edgeStyle=orthogonalEdgeStyle;rounded=0;orthogonalLoop=1;jettySize=auto;html=1;exitX=0.5;exitY=1;exitDx=0;exitDy=0;entryX=0.5;entryY=0;entryDx=0;entryDy=0;strokeColor=#FF0000;" parent="WIyWlLk6GJQsqaUBKTNV-1" source="RPS7sMxcY_FMIf3tSwKq-27" target="RPS7sMxcY_FMIf3tSwKq-108" edge="1">
          <mxGeometry relative="1" as="geometry" />
        </mxCell>
        <mxCell id="RPS7sMxcY_FMIf3tSwKq-27" value="Log in into the app" style="rounded=1;whiteSpace=wrap;html=1;fontSize=12;glass=0;strokeWidth=1;shadow=0;fillColor=#FFF2CC;strokeColor=#FF0000;fontColor=#000000;" parent="WIyWlLk6GJQsqaUBKTNV-1" vertex="1">
          <mxGeometry x="160" y="1520" width="120" height="40" as="geometry" />
        </mxCell>
        <mxCell id="RPS7sMxcY_FMIf3tSwKq-32" style="edgeStyle=orthogonalEdgeStyle;rounded=0;orthogonalLoop=1;jettySize=auto;html=1;exitX=0.5;exitY=1;exitDx=0;exitDy=0;entryX=0.5;entryY=0;entryDx=0;entryDy=0;strokeColor=#FF0000;" parent="WIyWlLk6GJQsqaUBKTNV-1" source="RPS7sMxcY_FMIf3tSwKq-33" target="RPS7sMxcY_FMIf3tSwKq-27" edge="1">
          <mxGeometry relative="1" as="geometry" />
        </mxCell>
        <mxCell id="RPS7sMxcY_FMIf3tSwKq-33" value="" style="ellipse;whiteSpace=wrap;html=1;aspect=fixed;fillColor=#000000;strokeColor=#FF0000;" parent="WIyWlLk6GJQsqaUBKTNV-1" vertex="1">
          <mxGeometry x="205" y="1460" width="30" height="30" as="geometry" />
        </mxCell>
        <mxCell id="RPS7sMxcY_FMIf3tSwKq-91" style="edgeStyle=orthogonalEdgeStyle;rounded=0;orthogonalLoop=1;jettySize=auto;html=1;exitX=0.5;exitY=1;exitDx=0;exitDy=0;entryX=0.5;entryY=0;entryDx=0;entryDy=0;strokeColor=#FF0000;" parent="WIyWlLk6GJQsqaUBKTNV-1" source="RPS7sMxcY_FMIf3tSwKq-83" target="Lc2zBRrE8XkyWr3bd9-U-2" edge="1">
          <mxGeometry relative="1" as="geometry">
            <mxPoint x="220" y="2142.5" as="targetPoint" />
          </mxGeometry>
        </mxCell>
        <mxCell id="RPS7sMxcY_FMIf3tSwKq-83" value="List firmwares of UGVs" style="rounded=1;whiteSpace=wrap;html=1;fontSize=12;glass=0;strokeWidth=1;shadow=0;fillColor=#FFF2CC;strokeColor=#FF0000;fontColor=#000000;" parent="WIyWlLk6GJQsqaUBKTNV-1" vertex="1">
          <mxGeometry x="160" y="2080" width="120" height="40" as="geometry" />
        </mxCell>
        <mxCell id="RPS7sMxcY_FMIf3tSwKq-140" style="edgeStyle=orthogonalEdgeStyle;rounded=0;orthogonalLoop=1;jettySize=auto;html=1;exitX=0;exitY=0.5;exitDx=0;exitDy=0;entryX=0;entryY=0.5;entryDx=0;entryDy=0;strokeColor=#FF0000;" parent="WIyWlLk6GJQsqaUBKTNV-1" source="RPS7sMxcY_FMIf3tSwKq-108" target="RPS7sMxcY_FMIf3tSwKq-111" edge="1">
          <mxGeometry relative="1" as="geometry">
            <Array as="points">
              <mxPoint x="60" y="1640" />
              <mxPoint x="60" y="2020" />
            </Array>
          </mxGeometry>
        </mxCell>
        <mxCell id="RPS7sMxcY_FMIf3tSwKq-141" value="No" style="edgeLabel;html=1;align=center;verticalAlign=middle;resizable=0;points=[];" parent="RPS7sMxcY_FMIf3tSwKq-140" vertex="1" connectable="0">
          <mxGeometry x="-0.0486" relative="1" as="geometry">
            <mxPoint as="offset" />
          </mxGeometry>
        </mxCell>
        <mxCell id="RPS7sMxcY_FMIf3tSwKq-142" style="edgeStyle=orthogonalEdgeStyle;rounded=0;orthogonalLoop=1;jettySize=auto;html=1;exitX=0.5;exitY=1;exitDx=0;exitDy=0;entryX=0.5;entryY=0;entryDx=0;entryDy=0;strokeColor=#FF0000;" parent="WIyWlLk6GJQsqaUBKTNV-1" source="RPS7sMxcY_FMIf3tSwKq-108" target="RPS7sMxcY_FMIf3tSwKq-131" edge="1">
          <mxGeometry relative="1" as="geometry" />
        </mxCell>
        <mxCell id="RPS7sMxcY_FMIf3tSwKq-143" value="Yes" style="edgeLabel;html=1;align=center;verticalAlign=middle;resizable=0;points=[];" parent="RPS7sMxcY_FMIf3tSwKq-142" vertex="1" connectable="0">
          <mxGeometry x="-0.1919" y="1" relative="1" as="geometry">
            <mxPoint as="offset" />
          </mxGeometry>
        </mxCell>
        <mxCell id="RPS7sMxcY_FMIf3tSwKq-108" value="Sync from USB device?" style="rhombus;whiteSpace=wrap;html=1;shadow=0;fontFamily=Helvetica;fontSize=12;align=center;strokeWidth=1;spacing=6;spacingTop=-4;fillColor=#FFF2CC;strokeColor=#FF0000;fontColor=#000000;" parent="WIyWlLk6GJQsqaUBKTNV-1" vertex="1">
          <mxGeometry x="170" y="1600" width="100" height="80" as="geometry" />
        </mxCell>
        <mxCell id="RPS7sMxcY_FMIf3tSwKq-117" style="edgeStyle=orthogonalEdgeStyle;rounded=0;orthogonalLoop=1;jettySize=auto;html=1;exitX=0.5;exitY=1;exitDx=0;exitDy=0;entryX=0.5;entryY=0;entryDx=0;entryDy=0;strokeColor=#FF0000;" parent="WIyWlLk6GJQsqaUBKTNV-1" source="RPS7sMxcY_FMIf3tSwKq-111" target="RPS7sMxcY_FMIf3tSwKq-83" edge="1">
          <mxGeometry relative="1" as="geometry" />
        </mxCell>
        <mxCell id="RPS7sMxcY_FMIf3tSwKq-111" value="Display Vulnerabilities Informations" style="rounded=1;whiteSpace=wrap;html=1;fontSize=12;glass=0;strokeWidth=1;shadow=0;fillColor=#FFF2CC;strokeColor=#FF0000;fontColor=#000000;" parent="WIyWlLk6GJQsqaUBKTNV-1" vertex="1">
          <mxGeometry x="160" y="2000" width="120" height="40" as="geometry" />
        </mxCell>
        <mxCell id="RPS7sMxcY_FMIf3tSwKq-130" style="edgeStyle=orthogonalEdgeStyle;rounded=0;orthogonalLoop=1;jettySize=auto;html=1;exitX=0.5;exitY=1;exitDx=0;exitDy=0;entryX=0.5;entryY=0;entryDx=0;entryDy=0;strokeColor=#FF0000;" parent="WIyWlLk6GJQsqaUBKTNV-1" source="RPS7sMxcY_FMIf3tSwKq-131" target="RPS7sMxcY_FMIf3tSwKq-133" edge="1">
          <mxGeometry relative="1" as="geometry" />
        </mxCell>
        <mxCell id="RPS7sMxcY_FMIf3tSwKq-131" value="Show list of registered USB devices on which to get new Vulneratibility informations" style="rounded=1;whiteSpace=wrap;html=1;fontSize=12;glass=0;strokeWidth=1;shadow=0;fillColor=#FFF2CC;strokeColor=#FF0000;fontColor=#000000;" parent="WIyWlLk6GJQsqaUBKTNV-1" vertex="1">
          <mxGeometry x="100" y="1720" width="240" height="40" as="geometry" />
        </mxCell>
        <mxCell id="RPS7sMxcY_FMIf3tSwKq-132" style="edgeStyle=orthogonalEdgeStyle;rounded=0;orthogonalLoop=1;jettySize=auto;html=1;exitX=0.5;exitY=1;exitDx=0;exitDy=0;entryX=0.5;entryY=0;entryDx=0;entryDy=0;strokeColor=#FF0000;" parent="WIyWlLk6GJQsqaUBKTNV-1" source="RPS7sMxcY_FMIf3tSwKq-133" target="RPS7sMxcY_FMIf3tSwKq-137" edge="1">
          <mxGeometry relative="1" as="geometry" />
        </mxCell>
        <mxCell id="RPS7sMxcY_FMIf3tSwKq-133" value="Select one USB device in the list" style="rounded=1;whiteSpace=wrap;html=1;fontSize=12;glass=0;strokeWidth=1;shadow=0;fillColor=#FFF2CC;strokeColor=#FF0000;fontColor=#000000;" parent="WIyWlLk6GJQsqaUBKTNV-1" vertex="1">
          <mxGeometry x="130" y="1800" width="180" height="40" as="geometry" />
        </mxCell>
        <mxCell id="RPS7sMxcY_FMIf3tSwKq-134" style="edgeStyle=orthogonalEdgeStyle;rounded=0;orthogonalLoop=1;jettySize=auto;html=1;exitX=1;exitY=0.5;exitDx=0;exitDy=0;entryX=0;entryY=0.5;entryDx=0;entryDy=0;strokeColor=#FF0000;" parent="WIyWlLk6GJQsqaUBKTNV-1" source="RPS7sMxcY_FMIf3tSwKq-137" target="RPS7sMxcY_FMIf3tSwKq-139" edge="1">
          <mxGeometry relative="1" as="geometry">
            <mxPoint x="320" y="1918" as="targetPoint" />
          </mxGeometry>
        </mxCell>
        <mxCell id="RPS7sMxcY_FMIf3tSwKq-135" value="Yes" style="edgeLabel;html=1;align=center;verticalAlign=middle;resizable=0;points=[];" parent="RPS7sMxcY_FMIf3tSwKq-134" vertex="1" connectable="0">
          <mxGeometry x="-0.2" y="1" relative="1" as="geometry">
            <mxPoint as="offset" />
          </mxGeometry>
        </mxCell>
        <mxCell id="RPS7sMxcY_FMIf3tSwKq-144" style="edgeStyle=orthogonalEdgeStyle;rounded=0;orthogonalLoop=1;jettySize=auto;html=1;exitX=0.5;exitY=1;exitDx=0;exitDy=0;entryX=0.5;entryY=0;entryDx=0;entryDy=0;strokeColor=#FF0000;" parent="WIyWlLk6GJQsqaUBKTNV-1" source="RPS7sMxcY_FMIf3tSwKq-137" target="RPS7sMxcY_FMIf3tSwKq-111" edge="1">
          <mxGeometry relative="1" as="geometry" />
        </mxCell>
        <mxCell id="RPS7sMxcY_FMIf3tSwKq-145" value="No" style="edgeLabel;html=1;align=center;verticalAlign=middle;resizable=0;points=[];" parent="RPS7sMxcY_FMIf3tSwKq-144" vertex="1" connectable="0">
          <mxGeometry x="-0.3307" y="-1" relative="1" as="geometry">
            <mxPoint as="offset" />
          </mxGeometry>
        </mxCell>
        <mxCell id="RPS7sMxcY_FMIf3tSwKq-137" value="Validation errors?" style="rhombus;whiteSpace=wrap;html=1;shadow=0;fontFamily=Helvetica;fontSize=12;align=center;strokeWidth=1;spacing=6;spacingTop=-4;fillColor=#FFF2CC;strokeColor=#FF0000;fontColor=#000000;" parent="WIyWlLk6GJQsqaUBKTNV-1" vertex="1">
          <mxGeometry x="170" y="1880" width="100" height="80" as="geometry" />
        </mxCell>
        <mxCell id="RPS7sMxcY_FMIf3tSwKq-138" style="edgeStyle=orthogonalEdgeStyle;rounded=0;orthogonalLoop=1;jettySize=auto;html=1;exitX=0.5;exitY=0;exitDx=0;exitDy=0;entryX=1;entryY=0.5;entryDx=0;entryDy=0;strokeColor=#FF0000;" parent="WIyWlLk6GJQsqaUBKTNV-1" source="RPS7sMxcY_FMIf3tSwKq-139" target="RPS7sMxcY_FMIf3tSwKq-131" edge="1">
          <mxGeometry relative="1" as="geometry" />
        </mxCell>
        <mxCell id="RPS7sMxcY_FMIf3tSwKq-139" value="Display error (e.g. read error)" style="rounded=1;whiteSpace=wrap;html=1;fontSize=12;glass=0;strokeWidth=1;shadow=0;fillColor=#FFF2CC;strokeColor=#FF0000;fontColor=#000000;" parent="WIyWlLk6GJQsqaUBKTNV-1" vertex="1">
          <mxGeometry x="320" y="1900" width="120" height="40" as="geometry" />
        </mxCell>
        <mxCell id="Lc2zBRrE8XkyWr3bd9-U-0" style="edgeStyle=orthogonalEdgeStyle;rounded=0;orthogonalLoop=1;jettySize=auto;html=1;exitX=0.5;exitY=1;exitDx=0;exitDy=0;entryX=0.5;entryY=0;entryDx=0;entryDy=0;strokeColor=#FF0000;" parent="WIyWlLk6GJQsqaUBKTNV-1" target="Lc2zBRrE8XkyWr3bd9-U-4" edge="1">
          <mxGeometry relative="1" as="geometry">
            <mxPoint x="220" y="2240" as="sourcePoint" />
          </mxGeometry>
        </mxCell>
        <mxCell id="Lc2zBRrE8XkyWr3bd9-U-1" value="Yes" style="edgeLabel;html=1;align=center;verticalAlign=middle;resizable=0;points=[];" parent="Lc2zBRrE8XkyWr3bd9-U-0" vertex="1" connectable="0">
          <mxGeometry x="-0.4133" y="1" relative="1" as="geometry">
            <mxPoint as="offset" />
          </mxGeometry>
        </mxCell>
        <mxCell id="Lc2zBRrE8XkyWr3bd9-U-20" style="edgeStyle=orthogonalEdgeStyle;rounded=0;orthogonalLoop=1;jettySize=auto;html=1;exitX=1;exitY=0.5;exitDx=0;exitDy=0;entryX=1;entryY=0.5;entryDx=0;entryDy=0;strokeColor=#FF0000;" parent="WIyWlLk6GJQsqaUBKTNV-1" source="Lc2zBRrE8XkyWr3bd9-U-2" target="Lc2zBRrE8XkyWr3bd9-U-9" edge="1">
          <mxGeometry relative="1" as="geometry">
            <Array as="points">
              <mxPoint x="360" y="2200" />
              <mxPoint x="360" y="2535" />
            </Array>
          </mxGeometry>
        </mxCell>
        <mxCell id="Lc2zBRrE8XkyWr3bd9-U-21" value="No" style="edgeLabel;html=1;align=center;verticalAlign=middle;resizable=0;points=[];" parent="Lc2zBRrE8XkyWr3bd9-U-20" vertex="1" connectable="0">
          <mxGeometry x="-0.87" relative="1" as="geometry">
            <mxPoint as="offset" />
          </mxGeometry>
        </mxCell>
        <mxCell id="Lc2zBRrE8XkyWr3bd9-U-2" value="Notify operational center?" style="rhombus;whiteSpace=wrap;html=1;shadow=0;fontFamily=Helvetica;fontSize=12;align=center;strokeWidth=1;spacing=6;spacingTop=-4;fillColor=#FFF2CC;strokeColor=#FF0000;fontColor=#000000;" parent="WIyWlLk6GJQsqaUBKTNV-1" vertex="1">
          <mxGeometry x="170" y="2160" width="100" height="80" as="geometry" />
        </mxCell>
        <mxCell id="Lc2zBRrE8XkyWr3bd9-U-3" style="edgeStyle=orthogonalEdgeStyle;rounded=0;orthogonalLoop=1;jettySize=auto;html=1;exitX=0.5;exitY=1;exitDx=0;exitDy=0;entryX=0.5;entryY=0;entryDx=0;entryDy=0;strokeColor=#FF0000;" parent="WIyWlLk6GJQsqaUBKTNV-1" source="Lc2zBRrE8XkyWr3bd9-U-4" target="Lc2zBRrE8XkyWr3bd9-U-6" edge="1">
          <mxGeometry relative="1" as="geometry" />
        </mxCell>
        <mxCell id="Lc2zBRrE8XkyWr3bd9-U-4" value="Display conversation to operational center" style="rounded=1;whiteSpace=wrap;html=1;fontSize=12;glass=0;strokeWidth=1;shadow=0;fillColor=#FFF2CC;strokeColor=#FF0000;fontColor=#000000;" parent="WIyWlLk6GJQsqaUBKTNV-1" vertex="1">
          <mxGeometry x="160" y="2280" width="120" height="40" as="geometry" />
        </mxCell>
        <mxCell id="Lc2zBRrE8XkyWr3bd9-U-5" style="edgeStyle=orthogonalEdgeStyle;rounded=0;orthogonalLoop=1;jettySize=auto;html=1;exitX=0.5;exitY=1;exitDx=0;exitDy=0;entryX=0.5;entryY=0;entryDx=0;entryDy=0;strokeColor=#FF0000;" parent="WIyWlLk6GJQsqaUBKTNV-1" source="Lc2zBRrE8XkyWr3bd9-U-6" target="Lc2zBRrE8XkyWr3bd9-U-8" edge="1">
          <mxGeometry relative="1" as="geometry" />
        </mxCell>
        <mxCell id="Lc2zBRrE8XkyWr3bd9-U-6" value="Show textbox with content of vulnerability description and severity" style="rounded=1;whiteSpace=wrap;html=1;fontSize=12;glass=0;strokeWidth=1;shadow=0;fillColor=#FFF2CC;strokeColor=#FF0000;fontColor=#000000;" parent="WIyWlLk6GJQsqaUBKTNV-1" vertex="1">
          <mxGeometry x="107.5" y="2360" width="225" height="40" as="geometry" />
        </mxCell>
        <mxCell id="Lc2zBRrE8XkyWr3bd9-U-7" style="edgeStyle=orthogonalEdgeStyle;rounded=0;orthogonalLoop=1;jettySize=auto;html=1;exitX=0.5;exitY=1;exitDx=0;exitDy=0;entryX=0.5;entryY=0;entryDx=0;entryDy=0;strokeColor=#FF0000;" parent="WIyWlLk6GJQsqaUBKTNV-1" source="Lc2zBRrE8XkyWr3bd9-U-8" target="Lc2zBRrE8XkyWr3bd9-U-9" edge="1">
          <mxGeometry relative="1" as="geometry" />
        </mxCell>
        <mxCell id="Lc2zBRrE8XkyWr3bd9-U-8" value="Send message" style="rounded=1;whiteSpace=wrap;html=1;fontSize=12;glass=0;strokeWidth=1;shadow=0;fillColor=#FFF2CC;strokeColor=#FF0000;fontColor=#000000;" parent="WIyWlLk6GJQsqaUBKTNV-1" vertex="1">
          <mxGeometry x="125" y="2440" width="190" height="40" as="geometry" />
        </mxCell>
        <mxCell id="Lc2zBRrE8XkyWr3bd9-U-9" value="" style="ellipse;whiteSpace=wrap;html=1;aspect=fixed;fillColor=#000000;strokeColor=#FF0000;" parent="WIyWlLk6GJQsqaUBKTNV-1" vertex="1">
          <mxGeometry x="205" y="2520" width="30" height="30" as="geometry" />
        </mxCell>
      </root>
    </mxGraphModel>
  </diagram>
</mxfile>
